<svg xmlns="http://www.w3.org/2000/svg" viewBox="0 0 438.8 123.31"><defs><style>.cls-1{fill:#fff;}</style></defs><title>castelli-logo</title><g id="Layer_2" data-name="Layer 2"><g id="Livello_1" data-name="Livello 1"><path class="cls-1" d="M188.8,77.19H166.65c-12.2,0-12.1-8.52-12.1-8.52V54.36s-.1-8,9.65-8h24.43V53.2H168.52c-5.89,0-5.59,5.08-5.59,5.08V65s-.11,5.45,5.59,5.45H188.8v6.74"/><path class="cls-1" d="M229.83,55.54V77.19H196.45a4.11,4.11,0,0,1-2.78-1.1,3.46,3.46,0,0,1-1.27-2.73l-.08-9.84a5.2,5.2,0,0,1,1.35-3.76,3.86,3.86,0,0,1,2.94-1.31H218a4.9,4.9,0,0,1,2.81.86,5.41,5.41,0,0,1,1.47,1.47V58a6.27,6.27,0,0,0-1-3.47,4,4,0,0,0-2.94-1.28H192.61V46.36h28S229.83,46.53,229.83,55.54ZM220.76,67.9a2.48,2.48,0,0,0-2.47-2.65H202a2.46,2.46,0,0,0-2.39,2.65s0,2.57,2.39,2.57h16.34A2.4,2.4,0,0,0,220.76,67.9Z"/><path class="cls-1" d="M270.74,72.78V63.31c0-4.71-5.2-4.83-5.2-4.83H244.9c-.89,0-2.83-.1-2.83-2.66a2.42,2.42,0,0,1,2.71-2.56H269.2l.09-6.9h-30.1A4.66,4.66,0,0,0,235.63,48a3.81,3.81,0,0,0-1.18,2.51V60.86s-.18,4.39,4.91,4.39h21.43a2.6,2.6,0,0,1,2.59,2.67,2.46,2.46,0,0,1-2.59,2.55H233.45v6.72h33.28a3.63,3.63,0,0,0,3-1.39,4.63,4.63,0,0,0,1-3"/><path class="cls-1" d="M320.66,53.25H305.84V77.19h-8.08V46.36h22.9v6.89Zm-25.1,23.94h-8.08V53.25H272.66V46.36h22.9V77.19"/><path class="cls-1" d="M323.31,68.77V54.18s.22-7.82,8.26-7.82h21.34s6.83-.08,6.83,7.82v6.55h0a4.51,4.51,0,0,1-.9,3,4.24,4.24,0,0,1-3.54,1.54H331.57v2.28a3,3,0,0,0,.82,2,2.35,2.35,0,0,0,1.8.92h25.1v6.72H332.64C323.47,77.19,323.31,68.77,323.31,68.77Zm28.34-12.95c0-2.54-2.67-2.62-2.67-2.62H334.74c-3.13,0-3.17,2.62-3.17,2.62v2.62h20.08Z"/><path class="cls-1" d="M394.82,77.19H372c-9.44,0-8.94-7.49-8.94-7.49V46.36H371v19.4s0,4.71,5.42,4.71h18.41v6.72"/><path class="cls-1" d="M428.9,77.13H406.07c-9.43,0-8.94-7.49-8.94-7.49V46.36h7.94V65.69s-.1,4.79,5.35,4.79h18.42l.06,6.65"/><polyline class="cls-1" points="438.8 77.19 430.86 77.19 430.86 46.36 438.8 46.36 438.8 77.19"/><path class="cls-1" d="M61.65,0a61.66,61.66,0,1,0,61.66,61.65A61.63,61.63,0,0,0,61.65,0Zm0,121A59.35,59.35,0,0,1,2.36,61.7v0A59.29,59.29,0,1,1,61.65,121Z"/><path class="cls-1" d="M61.65,6.84A54.86,54.86,0,1,0,116.51,61.7,54.42,54.42,0,0,0,61.65,6.84ZM87,47.84c-1.23.85-4.55.67-7-1.87s-3-6.2-1.92-7.86,1-1.09,1.07,1.56,3.18,6.78,6.7,6.87C87.46,46.68,89.66,46,87,47.84ZM73.57,19.34c2.23-2.29,7.31-.15,10.92,1.49.61.28,1.72.77,1.68,1.08s-.65.26-1.39.19c-2.18-.19-5.58-.56-7.29,1.19-.61.62-1.64,2.94-.18,4.43,1.59,1.64,2.51,1.65,3.58,1.58.54,0,1-.3,1.33-.06s.24,1.25-1,2.53-3.13,2.23-5.88-.59S70.21,22.79,73.57,19.34ZM56.94,36.51c2.43-1.21,1.26.38.65,1.53-3.58,6.78,1,8.27,1.12,8.31.85.33,2.29.72-.15,2-2.63,1.35-6.07.39-6.5-2.27C51.21,40.73,55.78,37.09,56.94,36.51ZM45.75,46.68c1.78-2.7,1.73-2,1.57-.27-.47,5.26,1.35,6.38,3.51,6.63,1.77-.32,1.65.15.37,1.74-1.51,1.88-4.47,2.34-5.84,0A8.28,8.28,0,0,1,45.75,46.68ZM40,56c.38-1.11,1.3-2.48,1.13.58-.08,1.6,1.08,4.32,3.75,4.11,2.4-.41,1.61.53.42,2.09s-4,2.52-5.37-1.33A8.09,8.09,0,0,1,40,56ZM36.61,66a3.36,3.36,0,0,0,4.29,2.46c2-1,1.91-.25,1.29,1.36s-2,3.1-4.14,1.88c-1.69-1-2.88-3.61-2.76-5.84S35.94,63.91,36.61,66ZM17,71.09c.38-3.48,4-6.8,8.64-6.44,5.75.45,4.58,1.35,3.3,2.1-.78.45-4.18,3.09-4.15,5.93,0,1.63,2,4.23-1.19,5-1.49.37-2.85,0-4.77-1.49A6.31,6.31,0,0,1,17,71.09ZM43.29,88.68c-1.26,1-3.85,4.07-9.71,4.07-5.08,0-13.23-5-13.21-13.79,0-.24,2.73.14,2.83.52A14.69,14.69,0,0,0,25.77,86a9.78,9.78,0,0,0,4.72,3.36A6.21,6.21,0,0,0,38,88a7,7,0,0,0,1.89-3.72c.14-1,.66-1.79,2.23-.5a9.72,9.72,0,0,1,2.33,2.8S45,87.32,43.29,88.68ZM59.61,92c-1.87-.18-5.71-1.91-5.49-4.43s2.33-2.8,3.42-2.93,1,.2.24,1.48c-1.25,2,.91,4.23,2.76,4.82C62.05,91.33,62.28,92.26,59.61,92Zm9.7-4.47c-4.73.75-6.81-1-7.22-2.29a3,3,0,0,1,.34-2.75,4.65,4.65,0,0,1,2.42-1.67c.6-.08.57.12.38,1.07-.13.66-.59,3.24,3.49,4.1C71.4,86.14,71.67,87.15,69.31,87.52Zm9.61-5.92c-2.35,1.56-7,1.6-8.64-.45-1.79-2.21.21-4.57.79-5.28,1-1.25,1.87-2,1.86.54,0,3.28,2.88,3.66,5.67,3.66C80.34,79.78,81.88,79.64,78.92,81.6Zm9.65-10.81c-1.83,2.88-6.72,5.65-9.67,4-2-1.13-3.06-3.73-1.06-6.92.66-1,1-1.18,1.62.46,1.18,3.25,4.6,3.16,7.65,1.4C89.65,68,89.74,69,88.57,70.79Zm12.6-14.94c-1.36,3.28-3.62,6.67-7.52,8.18-5.52,2.14-10.93-1.48-12-2.18-1.34-.85-1.4-.19-1.82.58a55.6,55.6,0,0,1-10,12.94c-4.18,3.79-12.13,10-22.26,11.08-1.49.16-1.7.3-2.4-1a11.34,11.34,0,0,0-3.28-3.3c-1.22-.78-1.22-.28-1-2.66.3-3.19,2.66-14.15,9.94-22.28A55.42,55.42,0,0,1,64,46.11s1.29-.51.52-1.5c-1-1.25-3.9-7.13-2.36-12.14a12.32,12.32,0,0,1,7.15-7.7.57.57,0,0,1,.85.46,8.61,8.61,0,0,0,.59,2.16,14.35,14.35,0,0,0,1.61,3.08.41.41,0,0,1-.18.6c-1.71.68-3.47,1.75-4,3.34-1.07,2.9.47,6.11,1.38,7.66a1.38,1.38,0,0,0,1.78.68,16,16,0,0,1,4.25-1c.65,0,.5.82.88,1.69,1.08,2.47,4.29,5.58,6.09,6.13s1.63.27,1.42,2.08A14.53,14.53,0,0,1,83,55.16c-.25.73-.3,1.21.83,1.61,2.36.84,4.87,2.44,7.94.73a6.77,6.77,0,0,0,2.64-3.73c.13-.38.29-.49.63-.27a12.27,12.27,0,0,0,5.77,1.82A.4.4,0,0,1,101.17,55.85Zm-7.65-6c-2.74-2.82-1.73-4.85-.58-6s2.25-1.31,2.47-1,0,.81-.06,1.36c-.07,1.1-.06,2.05,1.53,3.68s3.72.44,4.33-.19c1.7-1.75,1.34-5.24,1.15-7.48-.06-.76-.17-1.37.19-1.43s.78,1.1,1,1.73c1.6,3.7,3.69,8.92,1.46,11.21C101.69,55.12,96.27,52.67,93.52,49.85Z"/><path class="cls-1" d="M72.86,47.49A1.56,1.56,0,1,1,71.3,45.9a1.58,1.58,0,0,1,1.56,1.59"/><path class="cls-1" d="M80.09,54.93a1.55,1.55,0,1,1-1.55-1.6,1.57,1.57,0,0,1,1.55,1.6"/></g></g></svg>