<svg xmlns="http://www.w3.org/2000/svg" viewBox="0 0 48.67 27.88"><defs><style>.cls-1,.cls-2,.cls-4{fill:#fff;}.cls-1,.cls-2{isolation:isolate;}.cls-2{stroke:#fff;stroke-width:2.09px;}.cls-3{fill:#9a9ca2;}</style></defs><title>njba-logo</title><g id="Layer_2" data-name="Layer 2"><g id="working_layer" data-name="working layer"><path class="cls-1" d="M30.87,2.21c.07.07,0,.2-.12.28-.48.46-.65.95-.43,1.17s.85.18,1.51-.1c.14-.07.32-.07.37,0s0,.21-.19.27c-.56.41-.84.9-.7,1.16s.74.31,1.43.12c.15,0,.31,0,.33.07s-.09.21-.24.26c-.62.34-1,.81-.94,1.1s.6.44,1.29.34c.15,0,.29,0,.29.11s-.14.21-.29.24c-.67.27-1.14.7-1.15,1s.45.54,1.1.54c.15,0,.27.06.24.16a.37.37,0,0,1-.33.21,1.91,1.91,0,0,0-1.32.88c-.09.33.28.63.89.72.14,0,.23.11.17.21a.39.39,0,0,1-.35.17,2,2,0,0,0-1.45.73c-.17.32.1.69.64.87.13,0,.19.14.11.25a.42.42,0,0,1-.37.12,2.05,2.05,0,0,0-1.53.54c-.24.32-.09.74.37,1a.16.16,0,0,1,0,.27.38.38,0,0,1-.38.07,1.93,1.93,0,0,0-1.54.35.74.74,0,0,0,.08,1.1c.09.07.08.2,0,.29a.34.34,0,0,1-.37,0,1.75,1.75,0,0,0-1.52.14.87.87,0,0,0-.2,1.16.21.21,0,0,1-.1.29.29.29,0,0,1-.35,0,1.49,1.49,0,0,0-1.44-.08,1.06,1.06,0,0,0-.48,1.18c0,.09,0,.23-.17.29s-.28,0-.31-.08a1.23,1.23,0,0,0-1.31-.3,1.31,1.31,0,0,0-.75,1.16.31.31,0,0,1-.23.28c-.14,0-.26,0-.27-.13a1,1,0,0,0-1.13-.5,1.6,1.6,0,0,0-1,1.1.35.35,0,0,1-.28.25c-.14,0-.23-.06-.21-.17a.83.83,0,0,0-.93-.69,1.82,1.82,0,0,0-1.19,1,.39.39,0,0,1-.33.23.15.15,0,0,1-.15-.22.71.71,0,0,0-.68-.84,2,2,0,0,0-1.35.86.42.42,0,0,1-.36.19c-.12,0-.16-.13-.09-.25.16-.51,0-.92-.41-1a2.11,2.11,0,0,0-1.48.71.42.42,0,0,1-.38.14c-.1,0-.11-.16,0-.27.27-.51.2-1-.14-1.08a2,2,0,0,0-1.54.52.36.36,0,0,1-.38.09c-.09,0-.07-.18.05-.28.38-.49.43-1,.15-1.14a1.84,1.84,0,0,0-1.56.31c-.13.09-.31.11-.38,0s0-.2.12-.28c.48-.46.65-1,.44-1.17s-.86-.18-1.52.1c-.15.07-.32.07-.37,0s0-.21.19-.28c.56-.41.84-.89.7-1.15s-.75-.31-1.44-.12c-.14.05-.31,0-.33-.07s.09-.21.24-.26c.63-.35,1-.81.94-1.1s-.6-.44-1.29-.33c-.15,0-.29,0-.29-.12s.14-.21.29-.24c.67-.27,1.14-.7,1.15-1s-.45-.54-1.11-.54c-.15,0-.26-.06-.23-.16a.36.36,0,0,1,.32-.21,1.93,1.93,0,0,0,1.33-.88c.09-.33-.29-.63-.9-.72-.14,0-.23-.1-.17-.21a.39.39,0,0,1,.35-.17A2,2,0,0,0,7,10c.17-.32-.1-.69-.64-.87-.13,0-.19-.14-.11-.24a.39.39,0,0,1,.37-.13,2,2,0,0,0,1.52-.54c.24-.32.09-.74-.37-1a.16.16,0,0,1,0-.27.38.38,0,0,1,.38-.07,2,2,0,0,0,1.55-.35.75.75,0,0,0-.09-1.1.18.18,0,0,1,0-.29.34.34,0,0,1,.37,0A1.75,1.75,0,0,0,11.46,5a.87.87,0,0,0,.2-1.16.21.21,0,0,1,.1-.29.28.28,0,0,1,.35,0,1.49,1.49,0,0,0,1.44.08A1.08,1.08,0,0,0,14,2.45a.24.24,0,0,1,.17-.29.22.22,0,0,1,.31.08,1.24,1.24,0,0,0,1.31.29,1.3,1.3,0,0,0,.74-1.16.32.32,0,0,1,.23-.27c.14,0,.26,0,.27.13a1,1,0,0,0,1.14.49,1.59,1.59,0,0,0,1-1.1.36.36,0,0,1,.29-.25c.13,0,.23.06.21.17a.83.83,0,0,0,.93.68,1.85,1.85,0,0,0,1.19-1A.37.37,0,0,1,22.12,0a.14.14,0,0,1,.15.21.73.73,0,0,0,.69.85A2,2,0,0,0,24.34.21.37.37,0,0,1,24.67,0a.15.15,0,0,1,.14.23c-.16.52,0,.94.4,1a2.09,2.09,0,0,0,1.48-.7.42.42,0,0,1,.38-.14c.1,0,.11.16,0,.27-.27.51-.2,1,.13,1.08a2,2,0,0,0,1.55-.52.41.41,0,0,1,.38-.09c.09.06.07.18-.05.28-.39.5-.44,1-.16,1.15a1.89,1.89,0,0,0,1.56-.32C30.62,2.16,30.8,2.13,30.87,2.21Zm-8.24.84C16.9,3.05,10.78,6.73,9,11.28S10.29,19.5,16,19.5s11.84-3.68,13.67-8.22S28.35,3.05,22.63,3.05Z"/><path class="cls-2" d="M19.11,6.9a3.55,3.55,0,0,0-2.91,2L14,13.44c-.5,1.1,0,2,1.09,2H42.32a3.57,3.57,0,0,0,2.91-2L47.42,8.9c.51-1.1,0-2-1.08-2Z"/><polygon class="cls-3" points="16.43 13.29 15.08 13.29 16.92 9.25 18.27 9.25 16.43 13.29"/><polygon class="cls-3" points="21.51 13.29 20.16 13.29 22 9.25 23.35 9.25 21.51 13.29"/><polygon class="cls-3" points="21.54 12.28 20.19 13.29 16.92 10.26 18.27 9.25 21.54 12.28"/><path class="cls-3" d="M28.1,12.09l1.3-2.84h1.35l-1.51,3.31a1.29,1.29,0,0,1-1,.73h-5c-.4,0-.58-.33-.4-.73l.57-1.26h1.35l-.36.79Z"/><polygon class="cls-3" points="44.68 11.16 44.12 12.4 37.69 12.4 38.25 11.16 44.68 11.16"/><path class="cls-3" d="M43.71,13.29,45.21,10c.18-.4,0-.73-.39-.73H39.11l-1.83,4h1.35l1.29-2.84h3.73l-1.29,2.84Z"/><path class="cls-3" d="M36.5,11.29c.4,0,.57.32.39.72l-.27.58a1.29,1.29,0,0,1-1,.73h-5.7l1.85-4.07h5.7c.4,0,.58.33.4.73l-.27.58A1.29,1.29,0,0,1,36.5,11.29Zm-.13-1.12H32.65l-.27.6H36.1Zm-.74,1.63H31.91l-.28.61h3.72Z"/><path class="cls-4" d="M33.07,23.08l.86-1.72c.1-.21,0-.38-.19-.38H30.4l-1,2.1h.7l.74-1.48h2.32l-.74,1.48Z"/><polygon class="cls-4" points="34.67 22.62 34.83 22.31 37.83 22.31 38.09 21.77 35.1 21.77 35.25 21.46 38.27 21.46 38.51 20.98 34.79 20.98 33.74 23.09 37.45 23.09 37.69 22.62 34.67 22.62"/><path class="cls-4" d="M42.57,21l-.77,1.55a.18.18,0,0,1-.14.09h-.9L41.57,21h-.7l-.82,1.64h-.89s-.07,0,0-.09L39.89,21h-.71l-.87,1.75c-.1.21,0,.38.19.38h1.55l.18-.13.06.13h1.55a.72.72,0,0,0,.57-.38L43.27,21Z"/><path class="cls-4" d="M27.41,25.87h.71l.34-.68c.1-.21,0-.37-.19-.37a.71.71,0,0,0,.56-.38l.15-.3c.11-.21,0-.38-.19-.38H25.45l-.53,1.06-.52,1.05h.7l.39-.78h2.22c.05,0,.07,0,.05.09Zm.78-1.57-.07.16a.19.19,0,0,1-.15.09H25.76l.17-.34h2.22C28.2,24.21,28.22,24.25,28.19,24.3Z"/><path class="cls-4" d="M29.84,25.08H32c.05,0,.07,0,0,.09l0,.07,0,.06a.2.2,0,0,1-.14.1H29.68c-.05,0-.07,0,0-.1l.05-.11H29l-.15.31c-.11.21,0,.37.18.37h3a.68.68,0,0,0,.56-.37l.13-.26.15-.31c.11-.21,0-.38-.18-.38H30.1c-.05,0-.07,0,0-.09l0-.06,0-.07a.18.18,0,0,1,.14-.09h2.12c.06,0,.08,0,0,.09l0,.11h.7l.15-.3c.1-.21,0-.38-.19-.38h-3a.72.72,0,0,0-.57.38l-.13.26-.15.3c-.1.21,0,.38.19.38Z"/><polygon class="cls-4" points="21.09 25.4 21.24 25.09 24.24 25.09 24.51 24.55 21.51 24.55 21.67 24.24 24.68 24.24 24.92 23.76 21.2 23.76 20.15 25.87 23.87 25.87 24.1 25.4 21.09 25.4"/><polygon class="cls-4" points="33.84 25.4 33.99 25.09 36.99 25.09 37.26 24.55 34.26 24.55 34.42 24.24 37.43 24.24 37.67 23.76 33.95 23.76 32.9 25.87 36.62 25.87 36.85 25.4 33.84 25.4"/><path class="cls-4" d="M19.68,24.32h0l-.48,1a.18.18,0,0,1-.14.09H16.93c-.05,0-.07,0-.05-.09l.24-.47h-.71l-.32.66c-.11.2,0,.37.18.37h3a.7.7,0,0,0,.56-.37l.87-1.74H20Z"/><path class="cls-4" d="M41.92,23.76h-.7l-.38.77H38.52l.38-.77h-.7l-.47.95c-.1.21,0,.38.19.38h1.13l-.39.78h.7l.39-.78h1.14a.69.69,0,0,0,.56-.38Z"/><path class="cls-4" d="M2.47,26.69H.59l-.29.6-.3.59H1.88a.39.39,0,0,0,.32-.21l.08-.17c.06-.12,0-.21-.1-.21a.41.41,0,0,0,.31-.21l.09-.18C2.64,26.79,2.59,26.69,2.47,26.69Zm-.64.92H.53l.09-.17h1.3Zm.24-.47H.77L.85,27h1.3Z"/><path class="cls-4" d="M5.13,27.56s0,.06-.08.06H3.86a0,0,0,0,1,0-.06L4.1,27A.1.1,0,0,1,4.18,27h1.2s0,0,0,.05l0,.07h.4l.08-.18c.06-.11,0-.21-.1-.21H4.08a.41.41,0,0,0-.32.21l-.38.77c-.06.12,0,.21.1.21H5.15a.39.39,0,0,0,.32-.21l.08-.16H5.16Z"/><path class="cls-4" d="M10.1,27.56a.1.1,0,0,1-.08.06H8.83s0,0,0-.06L9.07,27A.1.1,0,0,1,9.15,27h1.2s0,0,0,.05l0,.07h.4l.08-.18c.06-.11,0-.21-.1-.21H9.05a.41.41,0,0,0-.32.21l-.38.77c-.06.12,0,.21.11.21h1.67a.39.39,0,0,0,.31-.21l.08-.16h-.39Z"/><polygon class="cls-4" points="13.74 27.61 13.83 27.44 15.52 27.44 15.67 27.14 13.98 27.14 14.07 26.96 15.77 26.96 15.9 26.69 13.81 26.69 13.22 27.88 15.31 27.88 15.44 27.61 13.74 27.61"/><polygon class="cls-4" points="11.26 27.61 12.96 27.61 12.82 27.88 10.73 27.88 11.32 26.69 11.72 26.69 11.26 27.61"/><polygon class="cls-4" points="2.88 27.88 2.49 27.88 3.08 26.69 3.47 26.69 2.88 27.88"/><path class="cls-4" d="M8.44,26.69H8.05l-.22.44H6.53l.22-.44h-.4l-.26.54c-.06.11,0,.21.1.21h.64l-.22.44H7l.22-.44h.64a.41.41,0,0,0,.32-.21Z"/><path class="cls-4" d="M19.4,27.26h0l.17-.35c.06-.11,0-.21-.1-.21H17.58L17,27.88h.39l.13-.26h1.3l-.12.26h.39l.13-.26h0Zm-1.7,0,.11-.21h1.3l-.1.21Z"/><path class="cls-4" d="M32.5,27.26h0l.17-.35c.06-.11,0-.21-.11-.21H30.68l-.58,1.18h.39l.13-.26h1.3l-.13.26h.4l.13-.26h0Zm-1.7,0,.11-.21h1.3l-.11.21Z"/><path class="cls-4" d="M20.14,27.43h1.2a0,0,0,0,1,0,.06l0,0v0a.1.1,0,0,1-.08.05h-1.2s0,0,0-.05l0-.06h-.4l-.08.17c-.06.12,0,.21.1.21h1.67a.39.39,0,0,0,.32-.21l.07-.15.09-.17c.05-.12,0-.21-.11-.21H20.29a0,0,0,0,1,0-.05l0,0,0,0a.09.09,0,0,1,.08-.05h1.19s0,0,0,.05l0,.06H22l.09-.17c.06-.11,0-.21-.11-.21H20.27a.4.4,0,0,0-.31.21l-.08.15-.08.17c-.06.12,0,.21.1.21Z"/><path class="cls-4" d="M22.58,27.43h1.2s0,0,0,.06v0l0,0a.1.1,0,0,1-.08.05h-1.2s0,0,0-.05l0-.06h-.4l-.08.17c-.06.12,0,.21.1.21h1.67a.39.39,0,0,0,.32-.21l.07-.15.09-.17c.05-.12,0-.21-.11-.21H22.73a0,0,0,0,1,0-.05l0,0,0,0a.09.09,0,0,1,.08-.05H24s0,0,0,.05l0,.06h.39l.09-.17c.06-.11,0-.21-.11-.21H22.71a.41.41,0,0,0-.31.21l-.07.15-.09.17c-.06.12,0,.21.11.21Z"/><polygon class="cls-4" points="34.92 26.96 35.06 26.69 32.97 26.69 32.83 26.96 33.68 26.96 33.23 27.88 33.62 27.88 34.08 26.96 34.92 26.96"/><path class="cls-4" d="M28.64,27.56a.1.1,0,0,1-.08.06H27.37s0,0,0-.06l.28-.55A.09.09,0,0,1,27.7,27h1.19s0,0,0,.05l0,.07h.39l.09-.18c.06-.11,0-.21-.11-.21H27.59a.4.4,0,0,0-.31.21l-.39.77c-.05.12,0,.21.11.21h1.67a.39.39,0,0,0,.32-.21l.08-.16h-.4Z"/><path class="cls-4" d="M26.71,27.51l-.09.16a.38.38,0,0,1-.31.21H24.64c-.12,0-.17-.09-.11-.21l.38-.77a.41.41,0,0,1,.32-.21H26.9c.12,0,.16.1.11.21l-.09.18Zm-.19-.43,0-.07s0-.05,0-.05h-1.2a.09.09,0,0,0-.07.05l-.28.55s0,.06,0,.06H26.2a.1.1,0,0,0,.08-.06l0,0Z"/><path class="cls-4" d="M37.82,27.51l-.08.16a.39.39,0,0,1-.32.21H35.75c-.12,0-.16-.09-.11-.21L36,26.9a.4.4,0,0,1,.31-.21H38c.12,0,.17.1.11.21l-.09.18Zm-.18-.43,0-.07s0-.05,0-.05H36.45a.09.09,0,0,0-.08.05l-.28.55s0,.06,0,.06h1.19a.1.1,0,0,0,.08-.06l0,0Z"/><polygon class="cls-4" points="29.64 27.88 29.25 27.88 29.84 26.69 30.23 26.69 29.64 27.88"/><polygon class="cls-4" points="35.13 27.88 34.74 27.88 35.33 26.69 35.72 26.69 35.13 27.88"/><path class="cls-4" d="M40.05,27.87l.48-1c.06-.11,0-.21-.11-.21H38.54L38,27.87h.39l.41-.83h1.31l-.42.83Z"/></g></g></svg>