<svg id="Layer_1" data-name="Layer 1" xmlns="http://www.w3.org/2000/svg" viewBox="0 0 311.37 361.3"><defs><style>.cls-1{fill:#ee3124;}.cls-2{fill:#fff;}</style></defs><title>pactimo</title><rect class="cls-1" width="311.37" height="361.3"/><path class="cls-2" d="M415.71,336.46A103.48,103.48,0,1,1,312.21,233a103.48,103.48,0,0,1,103.5,103.48ZM233.08,383.12c45-44.3,121.71,16.22,121.71,16.22-69.58-85.84,32.44-121.7,32.44-121.7C252.35,280,233.08,383.12,233.08,383.12Z" transform="translate(-156.55 -189.14)"/><path class="cls-2" d="M258.57,480.74a11.8,11.8,0,0,1,5.16-9.72c3.45-2.63,7.86-3.94,13.26-3.94A27.3,27.3,0,0,1,288.07,469l-2.95,3.86c-1.59-1.09-4.15-1.61-7.66-1.61a12.25,12.25,0,0,0-8.25,2.75,8.65,8.65,0,0,0,0,13.4,12.25,12.25,0,0,0,8.25,2.75c3.51,0,6.07-.53,7.66-1.61l2.95,3.86q-4.15,1.88-11.08,1.88h-.65a14.87,14.87,0,0,1-1.95-.11,20,20,0,0,1-10.66-3.82,11.78,11.78,0,0,1-5.14-9c0-.18,0-.37,0-.57Zm0,0c0,.2,0,.39,0,.57,0-.21,0-.43,0-.64v.07Zm75.69,13.51V467.1h7.35v27.15ZM315,471.44v22.81h-7.36V471.44H294.34V467.1H328.2v4.34Zm88.11,2.28a8.81,8.81,0,0,0-2.49,6.62c0,3,.77,5.37,2.36,7.05s3.81,2.51,6.81,2.51c3.51,0,6.17-.84,8.05-2.47s2.74-4,2.74-7.09c0-6-3.42-9.1-10.28-9.1-3.08,0-5.52.81-7.19,2.48Zm-5.77,16.74A12.63,12.63,0,0,1,393,480.37a11.84,11.84,0,0,1,4.7-9.5c3.18-2.6,7.32-3.88,12.59-3.88,5.79,0,10.23,1.17,13.28,3.5a11.74,11.74,0,0,1,4.58,9.88,12,12,0,0,1-4.79,10c-3.18,2.5-7.72,3.74-13.59,3.74-5.4,0-9.54-1.24-12.46-3.68Zm-7.14,3.68H383l-4.32-14.66-8.38,14.66h-2.61l-8.42-14.66-4.46,14.66h-7.16L356.06,467h2.64l10.2,18.26L379,467h2.66l8.46,27.15Zm-150.73-19-4.88,9.36h9.8l-4.92-9.36Zm-18.2,19.07,16.47-27.15h3.47l16.62,27.15h-8.17l-3-5.44H232.32l-2.91,5.44ZM206,471.33l-2.26.09v8.67l3,.13c3.37,0,5.82-.35,7.37-1.1a3.72,3.72,0,0,0,2.32-3.58c0-2.81-3.47-4.21-10.38-4.21Zm1.11,13.15c-.85,0-2-.07-3.37-.16v9.93h-7.35V467.3l8.6-.2q9.86,0,14.41,1.93c3.06,1.33,4.55,3.36,4.55,6.15,0,6.17-5.61,9.3-16.84,9.3Z" transform="translate(-156.55 -189.14)"/></svg>