<svg xmlns="http://www.w3.org/2000/svg" viewBox="0 0 248.58 63.28"><defs><style>.cls-1{fill:#fff;}</style></defs><title>logo</title><g id="Layer_2" data-name="Layer 2"><g id="Layer_1-2" data-name="Layer 1"><ellipse class="cls-1" cx="22.09" cy="42.67" rx="23.97" ry="17.73" transform="translate(-20.59 20.6) rotate(-35.28)"/><path class="cls-1" d="M110.74,29.4c-5.65-8-19-8.27-29.81-.62S66,49.1,71.61,57.1s19,8.27,29.81.63S116.4,37.4,110.74,29.4ZM97.38,52c-6.55,4.63-14.64,4.46-18.07-.39S78.41,39.11,85,34.47,99.61,30,103,34.86,103.94,47.39,97.38,52Z"/><path class="cls-1" d="M22.34,7.25s35.42-11.17,66.17-5S121.67,12,121.67,12,97.11,5,77.76,5.75a92.84,92.84,0,0,0-31.09,6.33l.09,1.42S63.39,16.87,66,29.75c3.25,16-30.84,32.17-30.84,32.17S58.51,47.58,59.34,35.17,44.59,18.92,28.17,19.08Z"/><polygon class="cls-1" points="145.63 0.69 145.63 7.86 136.87 1.29 136.87 7.26 136.56 7.56 136.26 7.26 136.26 0.07 145.02 6.65 145.02 0.69 145.33 0.39 145.63 0.69"/><polygon class="cls-1" points="148.67 4.22 148.67 6.89 157.12 6.89 157.43 7.2 157.12 7.5 148.05 7.5 148.05 0.32 157.12 0.32 157.43 0.63 157.12 0.93 148.67 0.93 148.67 3.6 157.12 3.6 157.43 3.91 157.12 4.22 148.67 4.22"/><polygon class="cls-1" points="172.69 0.69 172.66 0.81 169.48 7.97 166.18 1.37 162.87 7.97 159.7 0.81 159.67 0.68 159.97 0.39 160.24 0.56 162.91 6.54 166.18 0 169.44 6.54 172.1 0.56 172.39 0.39 172.69 0.69"/><path class="cls-1" d="M179.77,4.64l.31.3c0,.86.52,1.47,1.57,1.84a7.89,7.89,0,0,0,2.5.35,8,8,0,0,0,2.51-.35c1.05-.37,1.58-1,1.58-1.84V.69l.29-.31.31.31V4.94a2.39,2.39,0,0,1-1.59,2.26,7.63,7.63,0,0,1-3.1.54,7.64,7.64,0,0,1-3.09-.54,2.39,2.39,0,0,1-1.58-2.26Z"/><polygon class="cls-1" points="191.86 4.22 191.86 6.89 200.32 6.89 200.63 7.2 200.32 7.5 191.25 7.5 191.25 0.32 200.32 0.32 200.63 0.63 200.32 0.93 191.86 0.93 191.86 3.6 200.32 3.6 200.63 3.91 200.32 4.22 191.86 4.22"/><path class="cls-1" d="M203.73,4.7H210a1.81,1.81,0,0,0,1.33-.56,1.79,1.79,0,0,0,.55-1.33,1.82,1.82,0,0,0-.55-1.33A1.84,1.84,0,0,0,210,.93h-6.27Zm8.77,2.5-.06.16-.25.14-.16,0-3.21-2.14h-5.09V7.2l-.3.3-.31-.3V.32H210a2.41,2.41,0,0,1,1.77.73,2.41,2.41,0,0,1,.73,1.76,2.45,2.45,0,0,1-.73,1.77,2.41,2.41,0,0,1-1.77.73h-.09l2.45,1.63Z"/><path class="cls-1" d="M215.38,4.7l.3.3c0,.57.41,1,1.21,1.46a6.29,6.29,0,0,0,2.87.62,9.51,9.51,0,0,0,2.93-.38q1.14-.37,1.14-1c0-.42-.3-.74-.9-.94a16.19,16.19,0,0,0-2.66-.51l-.56-.07-.51-.08a19.74,19.74,0,0,1-2.8-.55c-.89-.31-1.33-.81-1.33-1.51s.5-1.17,1.49-1.51a9.81,9.81,0,0,1,3.2-.43,6.72,6.72,0,0,1,3.33.77,2.24,2.24,0,0,1,1.36,1.9l-.31.31-.31-.31c0-.56-.4-1-1.21-1.45a6.22,6.22,0,0,0-2.86-.62,9.58,9.58,0,0,0-2.94.38q-1.14.38-1.14,1c0,.42.33.73,1,.95a17.29,17.29,0,0,0,2.63.51l1.08.15a15.49,15.49,0,0,1,2.81.55c.85.3,1.28.81,1.28,1.5S224,6.91,223,7.25a9.86,9.86,0,0,1-3.2.43,6.59,6.59,0,0,1-3.33-.78A2.22,2.22,0,0,1,215.07,5Z"/><polygon class="cls-1" points="227.55 4.22 227.55 6.89 236 6.89 236.31 7.2 236 7.5 226.93 7.5 226.93 0.32 236 0.32 236.31 0.63 236 0.93 227.55 0.93 227.55 3.6 236 3.6 236.31 3.91 236 4.22 227.55 4.22"/><polygon class="cls-1" points="247.99 0.68 247.91 0.9 243.61 5.19 243.61 7.26 243.31 7.56 243 7.26 243 5.19 238.72 0.9 238.63 0.69 238.93 0.39 239.14 0.47 243.31 4.63 247.48 0.47 247.69 0.39 247.99 0.68"/><path class="cls-1" d="M144.75,12.66V33.53c0,.73.07.73-4.06.73V12.66h-4.42v-3A.71.71,0,0,1,137,8.9h12.32v3a.71.71,0,0,1-.72.72Z"/><path class="cls-1" d="M150.8,21.58c0-5.4-.08-10.91-.08-10.91,0-1.77.08-1.77,4.13-1.77,0,0-.07,7.28-.07,12.68,0,6.41.07,12,.07,12,0,.73,0,.73-4.13.73,0,0,.08-6.27.08-12.68"/><path class="cls-1" d="M157,9.62a.71.71,0,0,1,.72-.72h3.08l2.86,8.91a29.83,29.83,0,0,1,1,3.66,28.33,28.33,0,0,1,.87-3.59L168,9.62c.18-.54.29-.72.73-.72h3.4V33.53c0,.73,0,.73-4.16.73l.18-8.59a68.34,68.34,0,0,1,1-9.13h0c-.62,2.43-1.45,5.54-1.81,6.59L165.54,28l-.4.25h-1.67l-1.7-5.07c-.36-1-1.16-4.13-1.77-6.63l0,0a63.65,63.65,0,0,1,1,9l.11,8c0,.73-.26.73-4,.73Z"/><path class="cls-1" d="M183.47,30.63c0,3.41,0,3.62-.72,3.62h-8.44V9.62A.73.73,0,0,1,175,8.9h8.7c0,3.26,0,3.62-.73,3.62h-4.63v6.16h4.38c0,3,0,3.69-.69,3.69h-3.69v8.26Z"/><path class="cls-1" d="M198,12.66V33.53c0,.73.07.73-4.06.73V12.66h-4.42v-3a.71.71,0,0,1,.73-.72h12.31v3a.71.71,0,0,1-.72.72Z"/><path class="cls-1" d="M209.05,12.41a4.07,4.07,0,0,0-1,.11V20.6a1.58,1.58,0,0,0,.72.14c1.13,0,1.85-.83,1.85-4.89,0-2.32-.47-3.44-1.59-3.44m-1.7-3.51h.79c4.57,0,7.07,1.52,7.07,7.46,0,3.59-1.05,5.65-2.54,6.81,1.2,1.56,2.9,4.64,3.11,10.29,0,.69-.14.9-1.84.9-.65,0-1.74,0-2.64-.11-.15-5.65-1.45-8.51-2.36-9.78h-.87v9.06c0,.72.07.72-4.06.72V9.62a.71.71,0,0,1,.73-.72h2.61Z"/><path class="cls-1" d="M217.34,21.58c0-5.4-.07-10.91-.07-10.91,0-1.77.07-1.77,4.13-1.77,0,0-.07,7.28-.07,12.68,0,6.41.07,12,.07,12,0,.73,0,.73-4.13.73,0,0,.07-6.27.07-12.68"/><path class="cls-1" d="M228.86,24.84H232l-.72-3.37a41.93,41.93,0,0,1-.83-5.76,41.67,41.67,0,0,1-.87,5.76Zm3.95,3.66h-4.75L227,33.57c-.11.5-.22.76-1.85.76a25.2,25.2,0,0,1-2.57-.15l6.05-24.6c.11-.54,1-.76,1.63-.76a10,10,0,0,1,1.92.15l6.05,24.63c.11.47-.18.73-1.81.73-.54,0-1.31,0-2.36-.08Z"/><path class="cls-1" d="M243.46,30.45h5.11v3.08a.71.71,0,0,1-.72.72h-8.44V9.91c0-1,.07-1,4.05-1Z"/><path class="cls-1" d="M147.82,37.65a5.33,5.33,0,0,1-.6,2.78,3.23,3.23,0,0,0-1.92-.63c-2.12,0-4,1.92-4,10,0,6.45.81,8.38,2.89,8.38a6.5,6.5,0,0,0,2.89-.55,6.75,6.75,0,0,1,.55,2.88c0,1.08-1.7,2.3-3.93,2.3-4.22,0-6.78-1.11-6.78-12.67,0-12.16,4.08-14.38,7.42-14.38,3.15,0,3.52,1.07,3.52,1.89"/><path class="cls-1" d="M153.45,53.73c0,2.67,0,5.27,2.33,5.27a3.94,3.94,0,0,0,2.15-.49V37.09c0-.78,0-.78,4.23-.78V61.7c-.89.59-3.23,1.11-6.38,1.11-6.63,0-6.63-4.48-6.63-8.6V37.09c0-.78,0-.78,4.3-.78Z"/><path class="cls-1" d="M169.53,39.91a4.25,4.25,0,0,0-1,.11v8.27a1.68,1.68,0,0,0,.74.14c1.15,0,1.89-.85,1.89-5,0-2.37-.48-3.52-1.63-3.52m-5.15-2.85a.72.72,0,0,1,.74-.74h3.49c4.67,0,7.22,1.55,7.22,7.63,0,6.71-3.59,8.3-7,8.3h-.26v9.27c0,.74.08.74-4.15.74Z"/><path class="cls-1" d="M193.58,37.43a5,5,0,0,1-1,2.74,6.89,6.89,0,0,0-3.22-.74c-1.82,0-2.93.59-2.93,1.89a5.24,5.24,0,0,0,1.33,3.3l4.26,5.78a8.15,8.15,0,0,1,1.52,5.19c0,3.7-1.37,7.22-6.74,7.22-3.33,0-4.86-1.18-4.86-2a11.32,11.32,0,0,1,.93-3.48,5.63,5.63,0,0,0,3.71,1.22c1.44,0,2.44-1,2.44-2.74a6.08,6.08,0,0,0-1.52-3.93l-4-5.59A7.72,7.72,0,0,1,182,41.73c0-3.89,2.22-6,6.19-6,4.15,0,5.44,1,5.44,1.67"/><path class="cls-1" d="M204.63,58.55c0,3.49,0,3.71-.74,3.71h-8.64V37.06s0-.75.74-.75h8.9c0,3.34,0,3.71-.74,3.71H199.4v6.3h4.49c0,3.12,0,3.78-.71,3.78H199.4v8.45Z"/><path class="cls-1" d="M211.52,39.91a4.25,4.25,0,0,0-1,.11v8.27a1.68,1.68,0,0,0,.74.14c1.15,0,1.89-.85,1.89-5,0-2.37-.48-3.52-1.63-3.52m-1.74-3.59h.81c4.67,0,7.23,1.55,7.23,7.63,0,3.67-1.08,5.78-2.59,7,1.22,1.59,3,4.74,3.18,10.52,0,.71-.14.93-1.89.93-.66,0-1.77,0-2.7-.11-.15-5.78-1.48-8.71-2.41-10h-.89v9.27c0,.74.07.74-4.15.74V37.06a.72.72,0,0,1,.74-.74h2.67Z"/><path class="cls-1" d="M220,49.29c0-5.53-.08-11.16-.08-11.16,0-1.82.08-1.82,4.23-1.82,0,0-.08,7.45-.08,13,0,6.56.08,12.23.08,12.23,0,.74,0,.74-4.23.74,0,0,.08-6.41.08-13"/><path class="cls-1" d="M235.76,58.55c0,3.49,0,3.71-.74,3.71h-8.64V37.06s0-.75.74-.75H236c0,3.34,0,3.71-.74,3.71h-4.75v6.3H235c0,3.12,0,3.78-.71,3.78h-3.78v8.45Z"/><path class="cls-1" d="M248.58,37.43a5,5,0,0,1-1,2.74,6.9,6.9,0,0,0-3.23-.74c-1.82,0-2.93.59-2.93,1.89a5.2,5.2,0,0,0,1.34,3.3l4.26,5.78a8.21,8.21,0,0,1,1.52,5.19c0,3.7-1.37,7.22-6.75,7.22-3.33,0-4.85-1.18-4.85-2a11.32,11.32,0,0,1,.93-3.48,5.6,5.6,0,0,0,3.7,1.22c1.45,0,2.45-1,2.45-2.74a6.08,6.08,0,0,0-1.52-3.93l-4-5.59a7.72,7.72,0,0,1-1.56-4.56c0-3.89,2.23-6,6.19-6,4.15,0,5.45,1,5.45,1.67"/></g></g></svg>