<svg xmlns="http://www.w3.org/2000/svg" viewBox="0 0 278.73 70.5"><defs><style>.cls-1,.cls-2{fill:#fff;}.cls-2{font-size:21.67px;font-family:CorbelLight, Corbel;letter-spacing:0.17em;}.cls-3{letter-spacing:0.15em;}.cls-4{letter-spacing:0.17em;}.cls-5,.cls-7{font-size:23.47px;font-family:Corbel-Bold, Corbel;font-weight:700;}.cls-5{letter-spacing:0.14em;}.cls-6{letter-spacing:0.07em;}.cls-7{letter-spacing:0.12em;}.cls-8{letter-spacing:0.1em;}</style></defs><title>Asset 2logo</title><g id="Layer_2" data-name="Layer 2"><g id="Layer_1-2" data-name="Layer 1"><ellipse class="cls-1" cx="22.09" cy="45.5" rx="23.97" ry="17.73" transform="translate(-22.22 21.12) rotate(-35.28)"/><path class="cls-1" d="M110.74,32.24c-5.65-8-19-8.28-29.81-.63S66,51.93,71.61,59.93s19,8.27,29.81.63S116.4,40.23,110.74,32.24ZM97.38,54.86c-6.55,4.63-14.64,4.46-18.07-.38S78.41,41.94,85,37.31s14.64-4.47,18.07.38S103.94,50.22,97.38,54.86Z"/><path class="cls-1" d="M22.34,10.08s35.42-11.16,66.17-5,33.16,9.75,33.16,9.75S97.11,7.88,77.76,8.58a92.69,92.69,0,0,0-31.09,6.34l.09,1.41S63.39,19.7,66,32.58c3.25,16-30.84,32.17-30.84,32.17S58.51,50.42,59.34,38,44.59,21.75,28.17,21.92Z"/><text class="cls-2" transform="translate(127.06 17.91)">NEW<tspan class="cls-3" x="55.67" y="0"> </tspan><tspan class="cls-4" x="63.15" y="0">JERSEY</tspan><tspan class="cls-5"><tspan x="0.08" y="23.47">TIME</tspan><tspan class="cls-6" x="65.71" y="23.47"> </tspan><tspan x="72.21" y="23.47">TRIAL</tspan></tspan><tspan class="cls-7"><tspan x="-0.64" y="46.95">CUP</tspan><tspan class="cls-8" x="52.21" y="46.95"> </tspan><tspan x="59.33" y="46.95">SERIES</tspan></tspan></text></g></g></svg>